<?xml version="1.0" encoding="UTF-8"?>
<svg xmlns="http://www.w3.org/2000/svg" xmlns:xlink="http://www.w3.org/1999/xlink" width="24px" height="24px" viewBox="0 0 24 24" version="1.1">
<g id="surface1">
<path d="M 20.070312 18.226562 C 19.519531 18.320312 18.957031 18.363281 18.386719 18.363281 C 16.527344 18.363281 14.804688 17.902344 13.222656 16.984375 C 11.640625 16.066406 10.390625 14.816406 9.46875 13.230469 C 8.550781 11.648438 8.089844 9.925781 8.089844 8.070312 C 8.089844 6.109375 8.621094 4.285156 9.683594 2.597656 C 7.632812 3.210938 5.953125 4.382812 4.652344 6.109375 C 3.347656 7.832031 2.699219 9.792969 2.699219 11.992188 C 2.699219 13.316406 2.960938 14.585938 3.480469 15.796875 C 4 17.007812 4.699219 18.046875 5.570312 18.921875 C 6.441406 19.796875 7.484375 20.492188 8.695312 21.011719 C 9.90625 21.53125 11.175781 21.792969 12.5 21.792969 C 13.972656 21.792969 15.371094 21.480469 16.691406 20.851562 C 18.015625 20.226562 19.140625 19.355469 20.070312 18.226562 Z M 23.179688 16.925781 C 22.222656 19 20.773438 20.65625 18.835938 21.898438 C 16.902344 23.140625 14.792969 23.761719 12.5 23.761719 C 10.90625 23.761719 9.386719 23.449219 7.9375 22.828125 C 6.488281 22.203125 5.234375 21.367188 4.183594 20.316406 C 3.132812 19.265625 2.292969 18.007812 1.667969 16.558594 C 1.042969 15.109375 0.734375 13.589844 0.734375 11.996094 C 0.734375 10.433594 1.027344 8.9375 1.613281 7.515625 C 2.203125 6.089844 3 4.855469 4.003906 3.8125 C 5.011719 2.773438 6.214844 1.933594 7.613281 1.292969 C 9.011719 0.65625 10.492188 0.304688 12.054688 0.246094 C 12.503906 0.222656 12.816406 0.421875 12.988281 0.84375 C 13.171875 1.261719 13.097656 1.628906 12.757812 1.945312 C 11.878906 2.742188 11.207031 3.667969 10.746094 4.726562 C 10.277344 5.785156 10.046875 6.898438 10.046875 8.074219 C 10.046875 9.589844 10.421875 10.980469 11.167969 12.257812 C 11.914062 13.535156 12.925781 14.546875 14.199219 15.292969 C 15.476562 16.03125 16.871094 16.40625 18.382812 16.40625 C 19.589844 16.40625 20.753906 16.144531 21.878906 15.625 C 22.296875 15.4375 22.664062 15.507812 22.980469 15.824219 C 23.125 15.96875 23.214844 16.140625 23.25 16.34375 C 23.285156 16.546875 23.261719 16.742188 23.179688 16.925781 Z M 23.179688 16.925781" fill="#808191"/>
</g>
</svg>
